<?xml version="1.0" encoding="UTF-8" standalone="no" ?>
<!DOCTYPE svg PUBLIC "-//W3C//DTD SVG 1.1//EN" "http://www.w3.org/Graphics/SVG/1.1/DTD/svg11.dtd">
<svg xmlns="http://www.w3.org/2000/svg" xmlns:xlink="http://www.w3.org/1999/xlink" version="1.1" width="1080" height="1080" viewBox="0 0 1080 1080" xml:space="preserve">
<desc>Created with Fabric.js 5.2.4</desc>
<defs>
</defs>
<g transform="matrix(1 0 0 1 540 540)" id="4e7c6cce-fef3-4b97-aa7a-be320ce0b5d6"  >
<rect style="stroke: none; stroke-width: 1; stroke-dasharray: none; stroke-linecap: butt; stroke-dashoffset: 0; stroke-linejoin: miter; stroke-miterlimit: 4; fill: rgb(255,255,255); fill-rule: nonzero; opacity: 1; visibility: hidden;" vector-effect="non-scaling-stroke"  x="-540" y="-540" rx="0" ry="0" width="1080" height="1080" />
</g>
<g transform="matrix(1 0 0 1 540 540)" id="4e64561d-77ce-45a8-a0e9-fa562424c651"  >
</g>
<g transform="matrix(52.63 0 0 54.06 542.06 540.04)" id="4863aa78-0584-48a5-9c60-b9018c488114"  >
<path style="stroke: rgb(0,0,0); stroke-width: 0; stroke-dasharray: none; stroke-linecap: butt; stroke-dashoffset: 0; stroke-linejoin: miter; stroke-miterlimit: 4; fill: rgb(0,0,0); fill-rule: nonzero; opacity: 1;" vector-effect="non-scaling-stroke"  transform=" translate(-12, -11.75)" d="M 12.001 2 C 6.47598 2 2.00098 6.475 2.00098 12 C 2.00098 16.425 4.86348 20.1625 8.83848 21.4875 C 9.33848 21.575 9.52598 21.275000000000002 9.52598 21.0125 C 9.52598 20.775 9.513480000000001 19.9875 9.513480000000001 19.15 C 7.000980000000001 19.612499999999997 6.350980000000002 18.537499999999998 6.1509800000000014 17.974999999999998 C 6.038480000000002 17.687499999999996 5.550980000000002 16.799999999999997 5.125980000000002 16.562499999999996 C 4.775980000000002 16.374999999999996 4.275980000000002 15.912499999999996 5.113480000000002 15.899999999999997 C 5.9009800000000014 15.887499999999998 6.463480000000002 16.624999999999996 6.650980000000002 16.924999999999997 C 7.550980000000003 18.437499999999996 8.988480000000003 18.012499999999996 9.563480000000002 17.749999999999996 C 9.650980000000002 17.099999999999998 9.913480000000002 16.662499999999998 10.201000000000002 16.412499999999998 C 7.975980000000002 16.162499999999998 5.650980000000002 15.299999999999997 5.650980000000002 11.474999999999998 C 5.650980000000002 10.387499999999998 6.0384800000000025 9.487499999999997 6.675980000000003 8.787499999999998 C 6.575980000000003 8.537499999999998 6.2259800000000025 7.5124999999999975 6.775980000000002 6.1374999999999975 C 6.775980000000002 6.1374999999999975 7.613480000000003 5.874999999999997 9.525980000000002 7.162499999999998 C 10.326000000000002 6.937499999999998 11.176000000000002 6.8249999999999975 12.026000000000003 6.8249999999999975 C 12.876000000000003 6.8249999999999975 13.726000000000003 6.937499999999997 14.526000000000003 7.162499999999998 C 16.438500000000005 5.862499999999998 17.276000000000003 6.1374999999999975 17.276000000000003 6.1374999999999975 C 17.826000000000004 7.5124999999999975 17.476000000000003 8.537499999999998 17.376000000000005 8.787499999999998 C 18.013500000000004 9.487499999999997 18.401000000000003 10.374999999999998 18.401000000000003 11.474999999999998 C 18.401000000000003 15.312499999999998 16.063500000000005 16.162499999999998 13.838500000000003 16.412499999999998 C 14.201000000000004 16.724999999999998 14.513500000000004 17.325 14.513500000000004 18.2625 C 14.513500000000004 19.599999999999998 14.501000000000005 20.675 14.501000000000005 21.0125 C 14.501000000000005 21.275 14.688500000000005 21.5875 15.188500000000005 21.4875 C 19.259 20.1133 21.9999 16.2963 22.001 12 C 22.001 6.475 17.526000000000003 2 12.001000000000001 2 Z" stroke-linecap="round" />
</g>
</svg>