<?xml version="1.0" encoding="UTF-8" standalone="no" ?>
<!DOCTYPE svg PUBLIC "-//W3C//DTD SVG 1.1//EN" "http://www.w3.org/Graphics/SVG/1.1/DTD/svg11.dtd">
<svg xmlns="http://www.w3.org/2000/svg" xmlns:xlink="http://www.w3.org/1999/xlink" version="1.1" width="1080" height="1080" viewBox="0 0 1080 1080" xml:space="preserve">
<desc>Created with Fabric.js 5.2.4</desc>
<defs>
</defs>
<g transform="matrix(1 0 0 1 540 540)" id="45655fb9-0bc7-4bcc-ae6b-eb46c824bd7b"  >
<rect style="stroke: none; stroke-width: 1; stroke-dasharray: none; stroke-linecap: butt; stroke-dashoffset: 0; stroke-linejoin: miter; stroke-miterlimit: 4; fill: rgb(255,255,255); fill-rule: nonzero; opacity: 1; visibility: hidden;" vector-effect="non-scaling-stroke"  x="-540" y="-540" rx="0" ry="0" width="1080" height="1080" />
</g>
<g transform="matrix(1 0 0 1 540 540)" id="e671d095-a864-41dc-86f6-e6926ba73d48"  >
</g>
<g transform="matrix(36.43 0 0 35.11 539.18 544)"  >
<g style="" vector-effect="non-scaling-stroke"   >
		<g transform="matrix(0 -1 -1 0 0 -0.5)"  >
<rect style="stroke: none; stroke-width: 1; stroke-dasharray: none; stroke-linecap: butt; stroke-dashoffset: 0; stroke-linejoin: miter; stroke-miterlimit: 4; fill: rgb(38,85,124); fill-rule: nonzero; opacity: 1;" vector-effect="non-scaling-stroke"  x="-14" y="-14" rx="1.4" ry="1.4" width="28" height="28" />
</g>
		<g transform="matrix(1 0 0 1 0.5 0.5)"  >
<path style="stroke: none; stroke-width: 1; stroke-dasharray: none; stroke-linecap: butt; stroke-dashoffset: 0; stroke-linejoin: miter; stroke-miterlimit: 4; fill: rgb(0,0,0); fill-rule: nonzero; opacity: 0.2;" vector-effect="non-scaling-stroke"  transform=" translate(-16.5, -17)" d="M 8.0254 8.0001 C 7.2429 7.983499999999999 6.8759999999999994 8.5245 7.0371 9.4571 C 7.089099999999999 9.7577 7.3523 10.187000000000001 7.9199 10.899000000000001 C 8.551120000000001 11.689900000000002 8.80504 12.1217 9.0801 12.869700000000002 C 9.5137 14.049000000000001 9.714129999999999 14.444500000000001 10.06643 14.813100000000002 C 10.34009 15.099400000000003 10.34012 15.100220000000002 10.156270000000001 15.684190000000003 C 9.871200000000002 16.589750000000002 9.8122 18.40489 10.04104 19.258390000000002 C 10.38352 20.535790000000002 10.805060000000001 21.11579 11.39264 21.11579 C 11.81232 21.11579 12.15628 20.764870000000002 12.27936 20.21149 C 12.322040000000001 20.019630000000003 12.401850000000001 19.745420000000003 12.45709 19.60211 C 12.55244 19.35483 12.57802 19.37393 12.95123 19.982969999999998 C 13.16751 20.335929999999998 13.57989 20.861579999999996 13.86725 21.150969999999997 C 14.53105 21.819419999999997 15.44215 22.57267 15.507850000000001 22.508369999999996 C 15.5356 22.481239999999996 15.269850000000002 22.086599999999997 14.91801 21.629459999999995 C 14.56617 21.172319999999992 13.90291 20.110559999999996 13.44341 19.270059999999994 C 12.90748 18.289769999999994 12.54371 17.741459999999993 12.42971 17.740759999999995 C 12.05926 17.738259999999993 11.71383 18.320799999999995 11.51369 19.287659999999995 C 11.28313 20.401459999999997 10.876940000000001 20.214739999999995 10.546890000000001 18.842349999999996 C 10.356700000000002 18.051499999999997 10.45583 16.986349999999995 10.81056 15.988849999999996 C 10.97193 15.535089999999995 11.103530000000001 15.115119999999996 11.103530000000001 15.057209999999996 C 11.103530000000001 14.999299999999996 10.84622 14.513729999999995 10.531260000000001 13.977109999999996 C 10.216260000000002 13.440109999999995 9.846160000000001 12.680109999999996 9.709260000000002 12.287109999999997 C 9.376660000000003 11.333109999999996 9.218760000000001 11.055109999999997 8.551060000000003 10.244109999999996 C 7.863160000000003 9.409509999999996 7.798060000000003 9.023809999999996 8.345960000000003 9.027509999999996 C 8.771500000000003 9.030319999999996 9.458260000000003 9.316949999999997 10.148660000000003 9.781419999999995 C 10.585760000000002 10.075459999999996 10.733890000000002 10.115399999999996 11.435760000000004 10.115399999999996 C 12.317180000000004 10.115399999999996 12.506660000000004 10.187599999999996 13.728760000000005 10.992349999999997 C 14.973260000000005 11.811929999999997 15.900960000000005 12.573649999999997 16.543260000000004 13.304849999999997 C 17.113660000000003 13.954219999999996 17.425270000000005 14.518649999999997 19.103760000000005 17.961049999999997 C 19.748090000000005 19.282449999999997 20.319560000000006 19.920349999999996 21.107660000000003 20.19345 C 22.324960000000004 20.615299999999998 22.73936 20.80659 23.275660000000002 21.191499999999998 L 23.842070000000003 21.597749999999998 L 23.461210000000005 21.671969999999998 C 23.250910000000005 21.7123 22.792740000000006 21.778129999999997 22.443610000000003 21.81845 C 21.716200000000004 21.902449999999998 21.240510000000004 22.204179999999997 21.240510000000004 22.58212 C 21.240510000000004 23.00804 22.691810000000004 24.22742 24.146710000000006 25.023519999999998 C 24.845740000000006 25.40599 25.518310000000007 25.78279 25.640810000000005 25.86141 C 25.966790000000007 26.070629999999998 26.055050000000005 26.0453 25.970890000000004 25.76961 C 25.794650000000004 25.19223 25.198100000000004 24.62981 23.541190000000004 23.47471 C 22.569220000000005 22.797110000000004 22.559200000000004 22.822270000000003 23.857600000000005 22.69346 C 24.782600000000006 22.60246 25.249600000000004 22.444460000000003 25.249600000000004 22.22146 C 25.249600000000004 22.11946 24.779600000000006 21.577460000000002 24.204600000000006 21.01846 C 23.304600000000008 20.14246 23.000600000000006 19.92446 22.009600000000006 19.44146 C 20.659600000000005 18.78546 20.167600000000007 18.26446 19.856600000000007 17.158459999999998 C 19.39260000000001 15.509459999999997 18.144600000000008 13.571459999999998 16.48560000000001 11.928459999999998 C 14.773600000000009 10.232459999999998 13.13860000000001 9.294059999999998 11.64060000000001 9.147059999999998 C 11.03160000000001 9.087259999999999 10.71660000000001 8.994859999999997 10.401600000000009 8.781759999999998 C 9.868400000000008 8.420659999999998 8.62990000000001 8.013359999999999 8.02500000000001 8.000559999999998 z M 10.988299999999999 11.002099999999999 C 10.865639999999999 10.9942 10.758849999999999 11.010599999999998 10.685569999999998 11.06069 C 10.412159999999998 11.247679999999999 10.444579999999998 11.475729999999999 10.765649999999999 11.617329999999999 C 10.916569999999998 11.68389 11.130659999999999 11.9188 11.242209999999998 12.13881 C 11.617309999999998 12.878589999999999 12.192059999999998 12.38331 11.935569999999998 11.54115 C 11.854719999999999 11.27569 11.356269999999999 11.02568 10.988299999999999 11.00209 z" stroke-linecap="round" />
</g>
		<g transform="matrix(1 0 0 1 0.5 -0.5)"  >
<path style="stroke: none; stroke-width: 1; stroke-dasharray: none; stroke-linecap: butt; stroke-dashoffset: 0; stroke-linejoin: miter; stroke-miterlimit: 4; fill: rgb(255,255,255); fill-rule: nonzero; opacity: 1;" vector-effect="non-scaling-stroke"  transform=" translate(-16.5, -16)" d="M 8.0254 7 C 7.2429 6.9834 6.8759999999999994 7.5244 7.0371 8.457 C 7.089099999999999 8.7576 7.3523 9.1872 7.9199 9.8984 C 8.5511 10.689 8.8051 11.121 9.0801 11.869 C 9.5137 13.048 9.7141 13.443999999999999 10.065999999999999 13.812 C 10.34 14.099 10.34 14.1 10.155999999999999 14.684 C 9.871199999999998 15.588999999999999 9.812199999999999 17.404 10.040999999999999 18.258 C 10.383 19.535 10.804999999999998 20.115 11.392999999999999 20.115 C 11.812 20.115 12.155999999999999 19.764 12.278999999999998 19.211 C 12.321999999999997 19.019 12.401999999999997 18.744999999999997 12.456999999999999 18.601999999999997 C 12.552 18.353999999999996 12.578 18.372999999999998 12.950999999999999 18.981999999999996 C 13.166999999999998 19.334999999999997 13.579999999999998 19.860999999999997 13.866999999999999 20.149999999999995 C 14.530999999999999 20.818999999999996 15.441999999999998 21.571999999999996 15.508 21.507999999999996 C 15.536 21.480999999999995 15.27 21.085999999999995 14.918 20.628999999999994 C 14.565999999999999 20.171999999999993 13.902999999999999 19.109999999999996 13.443 18.269999999999996 C 12.907 17.288999999999994 12.544 16.740999999999996 12.43 16.739999999999995 C 12.059 16.737999999999996 11.714 17.319999999999993 11.514 18.286999999999995 C 11.283 19.400999999999996 10.876999999999999 19.213999999999995 10.546999999999999 17.841999999999995 C 10.357 17.050999999999995 10.456 15.985999999999995 10.810999999999998 14.987999999999996 C 10.971999999999998 14.534999999999997 11.103999999999997 14.114999999999997 11.103999999999997 14.056999999999995 C 11.103999999999997 13.998999999999993 10.845999999999997 13.512999999999995 10.530999999999997 12.976999999999995 C 10.215999999999998 12.439999999999994 9.845899999999997 11.679999999999994 9.708999999999998 11.286999999999995 C 9.376399999999999 10.332999999999995 9.218499999999997 10.054999999999996 8.550799999999999 9.244099999999996 C 7.862899999999999 8.409299999999996 7.797799999999999 8.023699999999996 8.345699999999999 8.027299999999997 C 8.771199999999999 8.030199999999997 9.457999999999998 8.316799999999997 10.148 8.781199999999997 C 10.586 9.075299999999997 10.734 9.115199999999996 11.436 9.115199999999996 C 12.317 9.115199999999996 12.506 9.187399999999997 13.729 9.992199999999997 C 14.972999999999999 10.811999999999998 15.901 11.573999999999996 16.543 12.304999999999996 C 17.113 12.953999999999997 17.425 13.518999999999997 19.104 16.960999999999995 C 19.747999999999998 18.281999999999996 20.319 18.919999999999995 21.107 19.192999999999994 C 22.325 19.614999999999995 22.739 19.805999999999994 23.275 20.190999999999995 L 23.842 20.597999999999995 L 23.461 20.671999999999997 C 23.250999999999998 20.711999999999996 22.791999999999998 20.778 22.442999999999998 20.817999999999998 C 21.715999999999998 20.901999999999997 21.24 21.203999999999997 21.24 21.581999999999997 C 21.24 22.007999999999996 22.691 23.226999999999997 24.145999999999997 24.022999999999996 C 24.845999999999997 24.405999999999995 25.517999999999997 24.782999999999998 25.641 24.860999999999997 C 25.967 25.070999999999998 26.055 25.044999999999998 25.970999999999997 24.769999999999996 C 25.793999999999997 24.191999999999997 25.197999999999997 23.629999999999995 23.540999999999997 22.474999999999994 C 22.568999999999996 21.796999999999993 22.558999999999997 21.821999999999996 23.856999999999996 21.692999999999994 C 24.782999999999994 21.600999999999996 25.249999999999996 21.442999999999994 25.249999999999996 21.220999999999993 C 25.249999999999996 21.118999999999993 24.779999999999998 20.576999999999995 24.205 20.017999999999994 C 23.305 19.140999999999995 23.000999999999998 18.923999999999992 22.009999999999998 18.440999999999995 C 20.659999999999997 17.784999999999997 20.168 17.263999999999996 19.857 16.157999999999994 C 19.393 14.507999999999994 18.145 12.570999999999994 16.486 10.927999999999994 C 14.774000000000001 9.231499999999993 13.139000000000001 8.293499999999995 11.641000000000002 8.146499999999994 C 11.032000000000002 8.086699999999995 10.717000000000002 7.994299999999995 10.402000000000001 7.781199999999994 C 9.8688 7.420099999999994 8.630300000000002 7.012799999999994 8.025400000000001 6.999999999999994 z M 10.988 10.001999999999999 C 10.866 9.9941 10.759 10.009999999999998 10.686 10.060999999999998 C 10.411999999999999 10.247999999999998 10.445 10.475999999999997 10.766 10.616999999999997 C 10.917 10.683999999999997 11.131 10.918999999999997 11.242 11.138999999999998 C 11.617 11.877999999999998 12.192 11.382999999999997 11.936 10.540999999999997 C 11.855 10.275999999999996 11.356 10.025999999999996 10.988 10.001999999999997 z" stroke-linecap="round" />
</g>
		<g transform="matrix(1 0 0 1 0 -13.3)"  >
<path style="stroke: none; stroke-width: 1; stroke-dasharray: none; stroke-linecap: butt; stroke-dashoffset: 0; stroke-linejoin: miter; stroke-miterlimit: 4; fill: rgb(255,255,255); fill-rule: nonzero; opacity: 0.1;" vector-effect="non-scaling-stroke"  transform=" translate(-16, -3.2)" d="M 3.4004 2 C 2.6248 2 1.9999999999999998 2.6248 1.9999999999999998 3.4004000000000003 L 1.9999999999999998 4.4004 C 1.9999999999999998 3.6248000000000005 2.6247999999999996 3 3.4004 3 L 28.6004 3 C 29.3754 3 30.0004 3.6248 30.0004 4.4004 L 30.0004 3.4004000000000003 C 30.0004 2.6248000000000005 29.3754 2 28.6004 2 L 3.400400000000001 2 z" stroke-linecap="round" />
</g>
		<g transform="matrix(1 0 0 1 0 13.3)"  >
<path style="stroke: none; stroke-width: 1; stroke-dasharray: none; stroke-linecap: butt; stroke-dashoffset: 0; stroke-linejoin: miter; stroke-miterlimit: 4; fill: rgb(0,0,0); fill-rule: nonzero; opacity: 0.2;" vector-effect="non-scaling-stroke"  transform=" translate(-16, -29.8)" d="M 2 28.6 L 2 29.6 C 2 30.375 2.6248 31 3.4004000000000003 31 L 28.6004 31 C 29.3754 31 30.0004 30.375 30.0004 29.6 L 30.0004 28.6 C 30.0004 29.375 29.3754 30 28.6004 30 L 3.400400000000001 30 C 2.6252000000000013 30 2.0004000000000013 29.375 2.0004000000000013 28.6 z" stroke-linecap="round" />
</g>
</g>
</g>
</svg>