<?xml version="1.0" encoding="UTF-8" standalone="no" ?>
<!DOCTYPE svg PUBLIC "-//W3C//DTD SVG 1.1//EN" "http://www.w3.org/Graphics/SVG/1.1/DTD/svg11.dtd">
<svg xmlns="http://www.w3.org/2000/svg" xmlns:xlink="http://www.w3.org/1999/xlink" version="1.1" width="1080" height="1080" viewBox="0 0 1080 1080" xml:space="preserve">
<desc>Created with Fabric.js 5.2.4</desc>
<defs>
</defs>
<g transform="matrix(1 0 0 1 540 540)" id="f4a50a4b-1e2a-43f8-bcfa-45eb2d09999b"  >
<rect style="stroke: none; stroke-width: 1; stroke-dasharray: none; stroke-linecap: butt; stroke-dashoffset: 0; stroke-linejoin: miter; stroke-miterlimit: 4; fill: rgb(255,255,255); fill-rule: nonzero; opacity: 1; visibility: hidden;" vector-effect="non-scaling-stroke"  x="-540" y="-540" rx="0" ry="0" width="1080" height="1080" />
</g>
<g transform="matrix(1 0 0 1 540 540)" id="ad057eaf-3f61-4d67-b4e4-0471ec1ef1b2"  >
</g>
<g transform="matrix(3.75 0 0 3.74 540.21 538.21)"  >
<g style="" vector-effect="non-scaling-stroke"   >
		<g transform="matrix(1 0 0 1 0 0)" id="path2997"  >
<path style="stroke: none; stroke-width: 1; stroke-dasharray: none; stroke-linecap: butt; stroke-dashoffset: 0; stroke-linejoin: miter; stroke-miterlimit: 4; fill: rgb(254,209,66); fill-rule: nonzero; opacity: 1;" vector-effect="non-scaling-stroke"  transform=" translate(-530.02, -707.89)" d="M 524.02119 846.66898 C 490.18171 845.43928 469.23673 835.4046 463.9078 817.8688 L 463.2884 815.8305799999999 L 463.2015 781.45251 C 463.1021 742.10646 463.137 741.3093799999999 465.23144 735.04419 C 469.05324 723.61209 478.09090000000003 716.2409299999999 492.22483 713.02823 L 495.35011 712.31784 L 534.21228 712.1457 C 562.0555899999999 712.02236 573.60007 711.88292 574.92827 711.65391 C 582.71006 710.31215 587.81483 708.30312 592.60744 704.6961 C 598.33273 700.38712 603.05859 693.01151 605.17049 685.08904 C 606.75666 679.1387699999999 606.71411 679.7887999999999 606.8855199999999 658.88722 L 607.04487 639.45614 L 621.04068 639.45614 L 635.03649 639.45614 L 637.7541299999999 640.21506 C 652.31508 644.28131 662.8867499999999 658.07713 667.3875599999999 678.88613 C 669.1186899999999 686.8898399999999 669.1367699999998 687.18598 669.1399199999998 707.60374 C 669.1429199999999 727.47415 669.1339199999999 727.64771 667.7456399999999 734.1656800000001 C 666.3811399999998 740.5720900000001 664.5950799999998 745.7849000000001 661.9260099999999 751.1508900000001 C 656.5432099999999 761.9726100000001 648.60611 769.2969100000001 638.5694199999999 772.7041500000001 C 632.83593 774.6505500000002 637.63519 774.4877700000002 581.2273399999999 774.6490300000002 L 530.4075899999999 774.7943100000001 L 530.4075899999999 779.4142800000001 L 530.4075899999999 784.0342600000001 L 564.1062499999999 784.1701400000002 L 597.80491 784.3060300000002 L 597.94079 800.8835900000001 C 598.01549 810.0012500000001 597.98289 818.2435900000002 597.86829 819.1998900000001 C 597.59104 821.51295 596.60978 824.2580300000001 595.20577 826.64835 C 593.7599200000001 829.1099 589.37057 833.5125800000001 586.39088 835.4900100000001 C 577.34037 841.4962700000001 563.5415 845.15749 545.3546100000001 846.3781200000001 C 539.2354300000001 846.7888 530.56973 846.9069400000001 524.0211800000001 846.66898 z M 570.76449 825.18769 C 577.25994 824.13465 581.9095100000001 817.77776 580.83857 811.41442 C 579.95521 806.1656399999999 575.90289 802.1058099999999 570.68398 801.24101 C 562.71681 799.92081 555.47135 807.2368399999999 556.88912 815.17021 C 557.9204100000001 820.94097 562.54763 825.0038499999999 568.5903900000001 825.44436 C 568.8145900000001 825.46066 569.79294 825.34516 570.76449 825.18769 z M 425.9631 776.15253 C 418.31923 774.7626799999999 410.79174 770.12987 405.47249999999997 763.54153 C 395.39718 751.0623899999999 390.31098999999995 730.2575499999999 390.94948999999997 704.1358299999999 C 391.34738999999996 687.8577799999999 393.78094999999996 675.7741299999999 398.73154 665.49465 C 405.11280999999997 652.2445 414.64731 644.38675 427.51855 641.77015 C 430.33783 641.19702 430.47915 641.19553 480.13401 641.2153599999999 C 507.51774 641.2262599999999 530.12346 641.15816 530.36894 641.06396 C 530.7584999999999 640.9144699999999 530.8152799999999 640.3087499999999 530.8152799999999 636.30178 C 530.8152799999999 633.77679 530.7846799999999 631.68151 530.7473799999999 631.64561 C 530.7099799999999 631.6097100000001 515.5150499999999 631.5179800000001 496.9807799999999 631.44178 L 463.2821199999999 631.30324 L 463.2121199999999 613.78897 C 463.13551999999993 594.60623 463.12011999999993 594.82867 464.7624599999999 591.3057399999999 C 470.4557799999999 579.0928999999999 487.2270699999999 571.6726899999999 514.10183 569.4762699999999 C 516.0449299999999 569.3174699999998 521.30356 569.1156299999999 525.78765 569.0277499999999 C 555.54112 568.4446399999998 577.36684 573.8852599999999 588.83943 584.7450199999998 C 590.1103899999999 585.9480899999999 591.76672 587.7438399999999 592.52017 588.7355699999998 C 594.2334 590.9906099999998 596.36596 595.2959099999998 597.18252 598.1480999999998 L 597.80495 600.3222099999998 L 597.80495 636.4667399999998 C 597.80495 670.2055099999999 597.77225 672.7831099999999 597.31337 675.1930199999998 C 596.7212499999999 678.3027899999998 595.29899 682.6721799999998 594.11363 685.0231099999999 C 590.00973 693.1624099999999 582.44832 699.0262599999999 572.4248399999999 701.8426799999999 C 565.9162299999999 703.6714799999999 568.8723099999999 703.5513299999999 525.7876499999999 703.7382699999998 C 483.0009199999999 703.9239099999999 485.5862099999999 703.8242699999998 479.58787999999987 705.5194799999998 C 467.93712999999985 708.8122099999998 459.3780399999999 717.8866999999998 455.90094999999985 730.6327599999998 C 454.33784999999983 736.3626699999999 454.37253999999984 735.8273399999998 454.2013699999998 756.8579199999998 L 454.04211999999984 776.4248899999998 L 440.9974799999998 776.4695899999998 C 431.1500899999998 776.5033899999999 427.46513999999985 776.4256899999998 425.9630999999998 776.1525199999999 z M 497.19477 613.57304 C 502.14042 611.24959 505.11875 605.80329 504.22339 600.72023 C 503.39747 596.03144 500.17793 592.28941 495.80863999999997 590.93987 C 488.82565999999997 588.78305 481.53950999999995 593.23373 480.25113 600.4430500000001 C 479.2033 606.3063300000001 482.59434999999996 612.0143600000001 488.32954 614.0411300000001 C 489.61123000000003 614.49408 490.43542 614.5858900000001 492.63252 614.5205100000001 C 495.02623 614.4493100000001 495.57002 614.3363400000001 497.19477 613.5730400000001 z" stroke-linecap="round" />
</g>
		<g transform="matrix(1 0 0 1 -35.67 -35.16)" id="path2995"  >
<path style="stroke: none; stroke-width: 1; stroke-dasharray: none; stroke-linecap: butt; stroke-dashoffset: 0; stroke-linejoin: miter; stroke-miterlimit: 4; fill: rgb(53,113,163); fill-rule: nonzero; opacity: 1;" vector-effect="non-scaling-stroke"  transform=" translate(-494.35, -672.73)" d="M 425.9631 776.15253 C 418.31923 774.7626799999999 410.79174 770.12987 405.47249999999997 763.54153 C 395.39718 751.0623899999999 390.31098999999995 730.2575499999999 390.94948999999997 704.1358299999999 C 391.34738999999996 687.8577799999999 393.78094999999996 675.7741299999999 398.73154 665.49465 C 405.11280999999997 652.2445 414.64731 644.38675 427.51855 641.77015 C 430.33783 641.19702 430.47915 641.19553 480.13401 641.2153599999999 C 507.51774 641.2262599999999 530.12346 641.15816 530.36894 641.06396 C 530.7584999999999 640.9144699999999 530.8152799999999 640.3087499999999 530.8152799999999 636.30178 C 530.8152799999999 633.77679 530.7846799999999 631.68151 530.7473799999999 631.64561 C 530.7099799999999 631.6097100000001 515.5150499999999 631.5179800000001 496.9807799999999 631.44178 L 463.2821199999999 631.30324 L 463.2121199999999 613.78897 C 463.13551999999993 594.60623 463.12011999999993 594.82867 464.7624599999999 591.3057399999999 C 470.4557799999999 579.0928999999999 487.2270699999999 571.6726899999999 514.10183 569.4762699999999 C 516.0449299999999 569.3174699999998 521.30356 569.1156299999999 525.78765 569.0277499999999 C 555.54112 568.4446399999998 577.36684 573.8852599999999 588.83943 584.7450199999998 C 590.1103899999999 585.9480899999999 591.76672 587.7438399999999 592.52017 588.7355699999998 C 594.2334 590.9906099999998 596.36596 595.2959099999998 597.18252 598.1480999999998 L 597.80495 600.3222099999998 L 597.80495 636.4667399999998 C 597.80495 670.2055099999999 597.77225 672.7831099999999 597.31337 675.1930199999998 C 596.7212499999999 678.3027899999998 595.29899 682.6721799999998 594.11363 685.0231099999999 C 590.00973 693.1624099999999 582.44832 699.0262599999999 572.4248399999999 701.8426799999999 C 565.9162299999999 703.6714799999999 568.8723099999999 703.5513299999999 525.7876499999999 703.7382699999998 C 483.0009199999999 703.9239099999999 485.5862099999999 703.8242699999998 479.58787999999987 705.5194799999998 C 467.93712999999985 708.8122099999998 459.3780399999999 717.8866999999998 455.90094999999985 730.6327599999998 C 454.33784999999983 736.3626699999999 454.37253999999984 735.8273399999998 454.2013699999998 756.8579199999998 L 454.04211999999984 776.4248899999998 L 440.9974799999998 776.4695899999998 C 431.1500899999998 776.5033899999999 427.46513999999985 776.4256899999998 425.9630999999998 776.1525199999999 z M 497.19477 613.57304 C 502.14042 611.24959 505.11875 605.80329 504.22339 600.72023 C 503.39747 596.03144 500.17793 592.28941 495.80863999999997 590.93987 C 488.82565999999997 588.78305 481.53950999999995 593.23373 480.25113 600.4430500000001 C 479.2033 606.3063300000001 482.59434999999996 612.0143600000001 488.32954 614.0411300000001 C 489.61123000000003 614.49408 490.43542 614.5858900000001 492.63252 614.5205100000001 C 495.02623 614.4493100000001 495.57002 614.3363400000001 497.19477 613.5730400000001 z" stroke-linecap="round" />
</g>
</g>
</g>
</svg>