<svg version="1.1" id="Layer_1" xmlns="http://www.w3.org/2000/svg" xmlns:xlink="http://www.w3.org/1999/xlink" x="0px" y="0px"
	 width="100%" viewBox="0 0 512 512" enable-background="new 0 0 512 512" xml:space="preserve">
<path fill="#000000" opacity="1.000000" stroke="none" 
	d="
M1.000000,466.000000 
	C1.000000,326.645782 1.000000,187.291550 1.215513,47.215645 
	C5.807343,39.493332 11.589477,34.638573 20.303499,34.637077 
	C125.055725,34.619102 229.807953,34.615288 334.560181,34.652973 
	C346.006927,34.657093 354.282257,43.099545 354.358398,54.569225 
	C354.401520,61.063938 354.571045,67.567101 354.309479,74.051361 
	C354.127258,78.568161 356.110107,80.220428 360.369415,80.665619 
	C380.756073,82.796448 399.893585,89.206596 417.909485,98.745888 
	C439.528259,110.192863 458.473755,124.888306 473.821411,144.320633 
	C485.583588,159.213226 495.080963,175.151443 502.004059,192.758469 
	C507.743591,207.355469 511.043427,222.504456 513.000000,238.000000 
	C513.000000,250.354233 513.000000,262.708466 512.955688,275.921539 
	C512.761475,277.255920 512.524780,277.722382 512.474121,278.208252 
	C509.669128,305.116150 500.571564,329.869751 486.131592,352.578674 
	C476.936554,367.039215 465.991730,380.143311 452.886169,391.388885 
	C441.365051,401.274933 428.993469,409.825226 415.373108,416.481171 
	C397.523376,425.203918 378.950470,431.644806 358.997772,433.518433 
	C356.036041,433.796570 354.256836,435.445160 354.336700,438.849304 
	C354.489044,445.341431 354.390747,451.839905 354.369965,458.335632 
	C354.328247,471.386780 346.277466,479.385712 333.141357,479.386108 
	C229.708145,479.389435 126.274849,479.329285 22.841810,479.463257 
	C12.439900,479.476746 5.438070,475.100128 1.000000,466.000000 
M16.374121,212.499725 
	C16.374725,292.811493 16.374067,373.123291 16.377741,453.435059 
	C16.378145,462.260010 16.943138,462.853394 25.685009,462.854218 
	C126.657516,462.863525 227.630035,462.865387 328.602539,462.857574 
	C337.382294,462.856903 338.026398,462.188110 338.025421,453.514771 
	C338.010681,322.717316 337.994110,191.919891 337.969727,61.122452 
	C337.969360,59.291805 337.949646,57.453392 337.785950,55.632366 
	C337.540771,52.905117 335.957001,51.411591 333.220825,51.289673 
	C330.891998,51.185905 328.557617,51.176216 326.225708,51.176132 
	C226.086349,51.172455 125.946983,51.173420 25.807623,51.177811 
	C17.103262,51.178192 16.380096,51.895451 16.379124,60.540787 
	C16.373470,110.860420 16.374744,161.180054 16.374121,212.499725 
M475.831573,176.582123 
	C468.348480,163.260193 458.921875,151.432755 447.928986,140.877777 
	C423.183990,117.118546 393.958588,102.370003 359.934753,97.169403 
	C355.147583,96.437668 354.239349,98.046219 354.264832,102.343643 
	C354.406189,126.169159 354.477478,149.997574 354.212677,173.820984 
	C354.157745,178.762100 355.952423,180.808395 360.440491,182.286377 
	C400.509308,195.481537 422.982391,237.239563 411.599457,277.920197 
	C404.105774,304.701447 386.590698,322.524597 360.427185,331.701721 
	C355.995636,333.256104 353.823639,335.212952 354.223907,340.199432 
	C354.675720,345.828186 354.328491,351.521088 354.328278,357.186096 
	C354.327576,375.347443 354.412384,393.509460 354.262115,411.669586 
	C354.227081,415.906952 355.101868,418.066345 359.907684,416.832550 
	C363.437653,415.926361 367.132599,415.680115 370.691315,414.865753 
	C408.864441,406.130096 439.947266,386.163818 463.852448,355.242096 
	C486.771454,325.596069 497.800110,291.647003 497.425934,254.380005 
	C497.151001,226.998001 489.957916,201.101334 475.831573,176.582123 
M388.095825,222.395721 
	C379.983765,210.541397 369.465454,201.995056 355.369873,197.722870 
	C353.578735,201.960602 354.696716,205.655853 354.306122,209.215607 
	C353.912628,212.801834 355.386322,214.900162 358.557251,216.778427 
	C389.923401,235.357681 389.735687,278.762421 358.306488,297.425964 
	C356.881195,298.272308 354.908722,298.885895 354.703033,300.639313 
	C354.113068,305.668335 353.855499,310.739807 354.876160,315.810486 
	C385.775635,309.162720 414.377289,264.458069 388.095825,222.395721 
M363.475159,266.985596 
	C367.515625,254.851959 363.334656,239.413925 354.761841,235.790665 
	C354.761841,250.031738 354.761841,264.144836 354.761841,279.263458 
	C359.372009,275.904846 361.239288,271.781830 363.475159,266.985596 
z"/>
<path fill="#000000" opacity="1.000000" stroke="none" 
	d="
M198.216080,113.588829 
	C225.145401,117.694557 248.661682,128.451920 269.091583,145.692291 
	C296.068573,168.457626 312.671570,197.345367 318.914368,232.126114 
	C319.206268,233.752365 319.369110,235.435455 319.316467,237.083282 
	C319.182159,241.290970 316.980957,244.165497 312.839050,244.721100 
	C308.823944,245.259659 305.547302,243.433838 304.223450,239.442749 
	C303.183411,236.307358 302.727570,232.977844 302.017487,229.733398 
	C290.732361,178.168243 249.618210,138.648193 197.822113,129.579102 
	C127.863113,117.329826 60.658611,164.470932 48.327049,234.434174 
	C48.096622,235.741516 47.796688,237.042358 47.436256,238.320007 
	C46.030174,243.304184 42.158787,246.055817 37.975437,245.087906 
	C33.707935,244.100525 31.014328,239.987610 31.823423,235.049622 
	C37.952118,197.645584 55.435474,166.691086 85.222649,143.139236 
	C113.342178,120.905937 145.633987,110.772743 181.430634,111.690063 
	C186.935349,111.831131 192.375702,112.527023 198.216080,113.588829 
z"/>
<path fill="#000000" opacity="1.000000" stroke="none" 
	d="
M51.374168,292.743134 
	C65.149254,336.329346 93.269112,365.863861 136.302109,379.939484 
	C193.306290,398.584900 256.424713,375.134888 287.556671,321.702911 
	C295.177612,308.623077 300.316101,294.651947 302.820984,279.710754 
	C303.121735,277.917053 303.551605,276.102692 304.231415,274.423248 
	C305.905426,270.287720 309.235077,268.600250 313.463287,269.414642 
	C317.405396,270.173981 319.414307,273.058533 319.312439,277.020813 
	C319.118347,284.571564 317.193207,291.876526 314.833466,298.937958 
	C296.355255,354.232849 258.596283,388.970032 201.400055,399.781555 
	C124.879677,414.245819 52.135975,365.795135 34.033455,290.289551 
	C33.220238,286.897583 32.625156,283.450806 32.004219,280.015869 
	C31.030407,274.628876 33.343018,270.490082 37.833126,269.455597 
	C42.526783,268.374268 46.121006,270.836761 47.535568,276.350006 
	C48.896748,281.655212 50.055191,287.012451 51.374168,292.743134 
z"/>
<path fill="#000000" opacity="1.000000" stroke="none" 
	d="
M87.509644,277.051147 
	C87.232597,259.636017 86.879478,242.652832 87.562241,225.655396 
	C88.401764,204.755157 98.556580,192.764694 119.385712,190.188049 
	C133.369019,188.458267 146.782806,190.390442 156.885696,201.846786 
	C163.313904,209.136139 165.043076,218.206985 165.228821,227.424881 
	C165.577896,244.747665 165.633881,262.089874 165.221344,279.409912 
	C164.926941,291.770386 161.665787,303.094574 150.530228,310.626373 
	C134.849411,321.232483 107.242195,318.573669 95.678345,305.057983 
	C88.896339,297.131226 87.254875,287.553406 87.509644,277.051147 
M118.114731,298.556854 
	C133.241837,302.768646 145.160416,296.086243 145.512680,282.365021 
	C146.011887,262.919067 145.850769,243.446869 145.528229,223.993225 
	C145.379547,215.025848 139.251480,208.595154 131.068207,207.405319 
	C115.661369,205.165176 106.825752,212.175430 106.482079,227.739914 
	C106.103973,244.863739 106.150177,262.007385 106.501785,279.132324 
	C106.666962,287.177185 108.803566,294.726593 118.114731,298.556854 
z"/>
<path fill="#000000" opacity="1.000000" stroke="none" 
	d="
M231.238892,297.355286 
	C242.984741,290.026581 243.548355,275.618744 232.710663,267.061829 
	C228.353073,263.621246 223.286316,261.452271 218.223511,259.295105 
	C212.094986,256.683868 205.951630,254.091339 200.253815,250.597885 
	C187.771774,242.944901 183.131714,230.247864 185.220078,217.206100 
	C187.503555,202.945908 196.606812,193.765869 210.920731,190.800018 
	C222.513580,188.397980 234.082413,189.019470 245.490158,192.135788 
	C248.550919,192.971893 251.464554,194.268600 253.796921,196.544891 
	C256.975342,199.646866 257.221100,204.242767 254.538773,208.417130 
	C252.031998,212.318298 248.622665,213.148926 244.631332,211.128952 
	C237.337631,207.437668 229.758392,205.565506 221.510910,206.195175 
	C212.059326,206.916748 205.915512,210.798630 204.518524,217.423599 
	C202.913300,225.036057 206.350128,230.882599 215.529343,235.383316 
	C223.598007,239.339508 231.869293,242.880600 239.966492,246.780701 
	C264.318726,258.510132 263.955444,291.871643 250.644226,305.960785 
	C244.642853,312.312836 237.066528,315.465546 228.640213,316.688873 
	C214.621414,318.724060 201.382751,316.508606 189.579666,308.318268 
	C182.366821,303.313171 180.313431,297.145569 183.385818,291.411865 
	C186.084839,286.374908 190.338074,285.313507 194.976517,288.596405 
	C196.330994,289.554993 197.559555,290.697327 198.809875,291.796356 
	C208.353821,300.185455 219.091690,301.851807 231.238892,297.355286 
z"/>
<path fill="#000000" opacity="1.000000" stroke="none" 
	d="
M443.596130,169.442169 
	C457.994507,187.467087 467.335602,207.474564 471.827698,229.737701 
	C472.155182,231.360687 472.358551,233.025391 472.435211,234.679260 
	C472.686493,240.101089 470.168549,243.564117 465.681091,244.113235 
	C461.688324,244.601807 457.988342,241.789673 456.936615,236.861053 
	C455.164215,228.555023 453.272919,220.302216 450.011597,212.429413 
	C437.729767,182.781006 417.467010,160.520447 388.653595,146.180084 
	C386.419495,145.068176 384.114258,144.069565 381.987000,142.779343 
	C378.440033,140.628052 377.905029,137.125351 378.883636,133.560028 
	C379.889923,129.893707 382.833557,128.402054 386.558075,128.460068 
	C388.777649,128.494614 390.766937,129.339890 392.748474,130.237167 
	C412.667084,139.256729 429.465973,152.329208 443.596130,169.442169 
z"/>
<path fill="#000000" opacity="1.000000" stroke="none" 
	d="
M437.596741,240.774918 
	C430.351318,242.311569 427.413177,240.814484 425.716461,234.240448 
	C419.375214,209.671051 405.570923,190.715958 383.889374,177.436127 
	C378.681213,174.246124 377.367249,169.748764 379.730927,165.652786 
	C382.225220,161.330368 387.030182,160.521667 392.373932,163.713806 
	C408.912689,173.593369 421.774384,187.046631 431.083618,203.895798 
	C435.535431,211.953262 438.823120,220.484604 440.931213,229.437576 
	C441.910736,233.597626 442.314270,237.791870 437.596741,240.774918 
z"/>
</svg>