<svg version="1.1" id="Layer_1" xmlns="http://www.w3.org/2000/svg" xmlns:xlink="http://www.w3.org/1999/xlink" x="0px" y="0px"
	 width="100%" viewBox="0 0 319 299" enable-background="new 0 0 319 299" xml:space="preserve">
<path fill="#DB7736" opacity="1.000000" stroke="none" 
	d="
M134.000000,1.000000 
	C149.687561,1.000000 165.375122,1.000000 181.740585,1.360864 
	C188.021210,2.440772 193.641052,3.047530 199.223602,3.898906 
	C219.931412,7.056993 240.075485,12.025325 258.056641,23.369070 
	C271.671234,31.958115 279.029480,43.612873 278.901001,60.547180 
	C278.452362,119.677765 278.705292,178.813858 278.752411,237.947830 
	C278.761017,248.748474 274.839508,257.687836 266.929932,264.987061 
	C255.991104,275.081818 242.757874,280.917938 228.731537,284.890747 
	C186.869080,296.747894 144.622498,297.221069 102.237190,287.981079 
	C86.364616,284.520905 71.149933,279.153259 57.840477,269.445435 
	C46.495827,261.170715 40.649845,250.531631 40.746387,235.886246 
	C41.138378,176.421188 41.001385,116.951683 40.812386,57.484600 
	C40.776337,46.142807 44.696274,36.849205 53.235580,29.819040 
	C58.713818,25.308966 64.753120,21.246525 71.078407,18.045561 
	C86.528809,10.226771 103.248512,6.411128 120.289551,3.839570 
	C124.897598,3.144198 129.431870,1.959888 134.000000,1.000000 
M143.494537,22.906569 
	C128.734665,25.262369 113.839874,26.997921 99.257484,30.169680 
	C87.533401,32.719738 76.317543,37.351871 67.222107,45.698643 
	C60.590752,51.784149 60.299591,57.288757 67.368378,62.848087 
	C73.168816,67.409912 79.793518,71.285469 86.611420,74.123230 
	C106.212601,82.281662 127.007675,85.050735 148.065216,85.963341 
	C174.358337,87.102844 200.412506,85.269142 225.485321,76.802811 
	C234.188461,73.864029 242.703674,69.518471 250.287491,64.328896 
	C259.893677,57.755436 259.716278,50.775497 250.249863,44.095722 
	C244.067291,39.733124 237.196548,35.932201 230.098618,33.353531 
	C202.417557,23.297066 173.633408,21.188698 143.494537,22.906569 
M237.680054,95.200859 
	C178.355713,113.810120 119.939255,112.525803 62.195610,87.205078 
	C62.195610,96.494789 62.361263,105.788315 62.124779,115.071602 
	C62.008854,119.622238 63.241497,123.635498 66.840813,126.050911 
	C73.285065,130.375534 79.742859,135.198135 86.922356,137.823334 
	C127.827782,152.780518 169.704132,152.942917 211.878113,144.289810 
	C225.465820,141.501938 238.700836,137.251587 249.812561,128.502365 
	C252.798233,126.151474 256.455688,122.534676 256.726837,119.245247 
	C257.605743,108.584297 257.055176,97.805511 257.055176,86.657227 
	C250.467529,89.590782 244.443909,92.273170 237.680054,95.200859 
M72.372940,194.168503 
	C79.289154,197.396606 85.938438,201.496933 93.165680,203.708664 
	C134.427368,216.335815 176.095596,216.435242 217.862793,206.319794 
	C229.391571,203.527664 240.584366,199.508408 249.967270,191.943100 
	C252.821838,189.641495 256.433197,186.235306 256.672516,183.103775 
	C257.499176,172.288513 256.990875,161.371216 256.990875,151.297913 
	C191.860611,178.197556 127.173103,178.516739 62.194630,150.986115 
	C62.194630,158.614471 62.774525,166.646454 62.039787,174.556320 
	C61.222233,183.357727 64.771950,189.269318 72.372940,194.168503 
M242.821915,220.350403 
	C241.590729,220.858475 240.375381,221.409668 239.126068,221.868332 
	C208.904587,232.964066 177.539108,235.838058 145.681534,234.300446 
	C117.019104,232.917053 89.112305,228.018738 63.513481,213.999481 
	C63.322693,213.895004 62.928253,214.162354 62.193325,214.392471 
	C62.193325,221.388947 62.697948,228.558914 62.059132,235.625519 
	C61.342197,243.556259 64.697571,249.276642 71.062073,252.603088 
	C80.440544,257.504822 90.040077,262.594421 100.158806,265.359314 
	C136.790131,275.368652 173.881912,275.345184 210.955536,267.646851 
	C223.871643,264.964844 236.558426,261.099579 247.446579,253.328644 
	C251.204926,250.646301 255.974533,246.669708 256.530396,242.752029 
	C257.859863,233.381561 256.959717,223.694733 256.959717,213.544708 
	C252.116806,215.896011 247.823959,217.980255 242.821915,220.350403 
z"/>
<path fill="#FFFEFE" opacity="1.000000" stroke="none" 
	d="
M133.531342,1.000000 
	C129.431870,1.959888 124.897598,3.144198 120.289551,3.839570 
	C103.248512,6.411128 86.528809,10.226771 71.078407,18.045561 
	C64.753120,21.246525 58.713818,25.308966 53.235580,29.819040 
	C44.696274,36.849205 40.776337,46.142807 40.812386,57.484600 
	C41.001385,116.951683 41.138378,176.421188 40.746387,235.886246 
	C40.649845,250.531631 46.495827,261.170715 57.840477,269.445435 
	C71.149933,279.153259 86.364616,284.520905 102.237190,287.981079 
	C144.622498,297.221069 186.869080,296.747894 228.731537,284.890747 
	C242.757874,280.917938 255.991104,275.081818 266.929932,264.987061 
	C274.839508,257.687836 278.761017,248.748474 278.752411,237.947830 
	C278.705292,178.813858 278.452362,119.677765 278.901001,60.547180 
	C279.029480,43.612873 271.671234,31.958115 258.056641,23.369070 
	C240.075485,12.025325 219.931412,7.056993 199.223602,3.898906 
	C193.641052,3.047530 188.021210,2.440772 182.209244,1.360864 
	C227.983047,1.000000 273.966095,1.000000 319.974579,1.000000 
	C319.974579,100.612991 319.974579,200.225983 319.974579,299.919495 
	C213.759567,299.919495 107.519043,299.919495 1.139261,299.919495 
	C1.139261,200.333466 1.139261,100.666763 1.139261,1.000000 
	C45.094986,1.000000 89.078835,1.000000 133.531342,1.000000 
z"/>
<path fill="#FFFEFD" opacity="1.000000" stroke="none" 
	d="
M143.970917,22.875750 
	C173.633408,21.188698 202.417557,23.297066 230.098618,33.353531 
	C237.196548,35.932201 244.067291,39.733124 250.249863,44.095722 
	C259.716278,50.775497 259.893677,57.755436 250.287491,64.328896 
	C242.703674,69.518471 234.188461,73.864029 225.485321,76.802811 
	C200.412506,85.269142 174.358337,87.102844 148.065216,85.963341 
	C127.007675,85.050735 106.212601,82.281662 86.611420,74.123230 
	C79.793518,71.285469 73.168816,67.409912 67.368378,62.848087 
	C60.299591,57.288757 60.590752,51.784149 67.222107,45.698643 
	C76.317543,37.351871 87.533401,32.719738 99.257484,30.169680 
	C113.839874,26.997921 128.734665,25.262369 143.970917,22.875750 
z"/>
<path fill="#FFFDFD" opacity="1.000000" stroke="none" 
	d="
M238.050171,95.078209 
	C244.443909,92.273170 250.467529,89.590782 257.055176,86.657227 
	C257.055176,97.805511 257.605743,108.584297 256.726837,119.245247 
	C256.455688,122.534676 252.798233,126.151474 249.812561,128.502365 
	C238.700836,137.251587 225.465820,141.501938 211.878113,144.289810 
	C169.704132,152.942917 127.827782,152.780518 86.922356,137.823334 
	C79.742859,135.198135 73.285065,130.375534 66.840813,126.050911 
	C63.241497,123.635498 62.008854,119.622238 62.124779,115.071602 
	C62.361263,105.788315 62.195610,96.494789 62.195610,87.205078 
	C119.939255,112.525803 178.355713,113.810120 238.050171,95.078209 
z"/>
<path fill="#FFFEFD" opacity="1.000000" stroke="none" 
	d="
M72.075729,193.965942 
	C64.771950,189.269318 61.222233,183.357727 62.039787,174.556320 
	C62.774525,166.646454 62.194630,158.614471 62.194630,150.986115 
	C127.173103,178.516739 191.860611,178.197556 256.990875,151.297913 
	C256.990875,161.371216 257.499176,172.288513 256.672516,183.103775 
	C256.433197,186.235306 252.821838,189.641495 249.967270,191.943100 
	C240.584366,199.508408 229.391571,203.527664 217.862793,206.319794 
	C176.095596,216.435242 134.427368,216.335815 93.165680,203.708664 
	C85.938438,201.496933 79.289154,197.396606 72.075729,193.965942 
z"/>
<path fill="#FFFEFD" opacity="1.000000" stroke="none" 
	d="
M243.176514,220.207458 
	C247.823959,217.980255 252.116806,215.896011 256.959717,213.544708 
	C256.959717,223.694733 257.859863,233.381561 256.530396,242.752029 
	C255.974533,246.669708 251.204926,250.646301 247.446579,253.328644 
	C236.558426,261.099579 223.871643,264.964844 210.955536,267.646851 
	C173.881912,275.345184 136.790131,275.368652 100.158806,265.359314 
	C90.040077,262.594421 80.440544,257.504822 71.062073,252.603088 
	C64.697571,249.276642 61.342197,243.556259 62.059132,235.625519 
	C62.697948,228.558914 62.193325,221.388947 62.193325,214.392471 
	C62.928253,214.162354 63.322693,213.895004 63.513481,213.999481 
	C89.112305,228.018738 117.019104,232.917053 145.681534,234.300446 
	C177.539108,235.838058 208.904587,232.964066 239.126068,221.868332 
	C240.375381,221.409668 241.590729,220.858475 243.176514,220.207458 
z"/>
</svg>